<svg xmlns="http://www.w3.org/2000/svg" viewBox="0 0 355 165">
  <path fill="#FFF" d="M305 60a1.494 1.494 0 00-.259-.005l-.185.005H305zm-.259-.005c-1.284-.056-2.534-.511-3.384-1.36-.898-.905-4.6-3.635-5.449-3.635h-.454c-1.382 0-2.725-.889-2.725-2.275 0-1.385 1.343-2.725 2.725-2.725H345c1.377 0 2.729-.459 3.633-1.365l5-5C354.541 42.729 355 41.379 355 40v-5c0-1.379-.459-2.729-1.367-3.635l-5-5C347.729 25.459 346.377 25 345 25h-5c-2.012-.005-3.516-1.025-5-2.275s-2.988-2.72-5-2.725h-5c-2.012-.005-3.516-1.025-5-2.275s-2.988-2.72-5-2.725-3.516-1.025-5-2.275-2.988-2.72-5-2.725-3.516-1.025-5-2.275-2.988-2.72-5-2.725-3.516-1.025-5-2.275S287.012.005 285 0h-20c-1.377 0-2.729.459-3.633 1.365l-10 10c-.908.906-9.883 10.11-11.367 11.36s-2.988 2.271-5 2.275h-10c-2.012-.005-3.516-1.025-5-2.275s-2.988-2.72-5-2.725h-5c-2.012-.005-3.516-1.025-5-2.275s-2.988-2.72-5-2.725-3.516-1.025-5-2.275-2.988-2.72-5-2.725-3.516-1.025-5-2.275-2.988-2.72-5-2.725c-2.01-.005-3.516-1.025-5-2.275S172.01.005 170 0h-20c-1.379 0-2.729.459-3.635 1.365l-10 10c-.906.906-9.881 10.11-11.365 11.36s-2.99 2.271-5 2.275h-5v.845l-.19-.845H110c-2.01-.005-3.516-1.025-5-2.275s-2.99-2.72-5-2.725h-5c-2.01-.005-3.516-1.025-5-2.275s-2.99-2.72-5-2.725-3.516-1.025-5-2.275-2.99-2.72-5-2.725-3.516-1.025-5-2.275S67.01 5.005 65 5s-3.516-1.025-5-2.275S57.01.005 55 0H35c-1.379 0-2.729.459-3.635 1.365l-5 5C25.459 7.271 25 8.621 25 10v5c-.005 2.01-1.025 3.516-2.275 5s-2.72 2.99-2.725 5v5c-.005 2.01-1.025 3.516-2.275 5s-2.72 2.99-2.725 5-1.025 3.516-2.275 5-2.72 2.99-2.725 5-1.025 3.516-2.275 5S5.005 57.99 5 60s-1.025 3.516-2.275 5S.005 67.99 0 70v25c.005 2.012 1.475 3.516 2.725 5s2.271 2.988 2.275 5 1.475 3.516 2.725 5 2.271 2.988 2.275 5 1.475 3.516 2.725 5 2.271 2.988 2.275 5 1.475 3.516 2.725 5 2.271 2.988 2.275 5v5c.005 2.012 1.475 3.516 2.725 5s2.271 2.988 2.275 5v5c0 1.377.459 2.729 1.365 3.633l5 5c.906.908 2.256 1.367 3.635 1.367h20c2.01-.005 3.516-1.025 5-2.275s2.99-2.72 5-2.725 3.516-1.025 5-2.275 2.99-2.72 5-2.725 3.516-1.025 5-2.275 2.99-2.72 5-2.725 3.516-1.025 5-2.275 2.99-2.72 5-2.725h5c2.01-.005 3.516-1.025 5-2.275s2.99-2.72 5-2.725h20c1.006 0 1.914.381 2.725.908.815.527 1.525 1.196 2.275 1.821s1.46 1.406 2.275 1.821c.811.41 1.719.449 2.725.449h5c2.01.005 3.516 1.475 5 2.725s2.99 2.271 5 2.275 3.516 1.475 5 2.725 2.99 2.271 5 2.275 3.516 1.475 5 2.725 2.99 2.271 5 2.275 3.516 1.475 5 2.725 2.988 2.271 5 2.275h20c1.377 0 2.729-.459 3.633-1.367l5-5c.908-.903 1.367-2.256 1.367-3.633.005-2.012 1.475-3.516 2.725-5s2.271-2.988 2.275-5c0-2.764 2.236-5 5-5h20c1.006 0 1.914.381 2.725.908.815.527 1.523 1.196 2.275 1.821s1.46 1.406 2.275 1.821c.811.41 1.719.449 2.725.449h5c2.012.005 3.516 1.475 5 2.725s2.988 2.271 5 2.275 3.516 1.475 5 2.725 2.988 2.271 5 2.275 3.516 1.475 5 2.725 2.988 2.271 5 2.275 3.516 1.475 5 2.725 2.988 2.271 5 2.275h20c1.377 0 2.729-.459 3.633-1.367l5-5c.908-.903 1.367-2.256 1.367-3.633.005-2.012 1.475-3.516 2.725-5s2.271-2.988 2.275-5 1.475-3.516 2.725-5 2.271-2.988 2.275-5 1.475-3.516 2.725-5 2.271-2.988 2.275-5 1.475-3.516 2.725-5 2.271-2.988 2.275-5 1.475-3.516 2.725-5 2.271-2.988 2.275-5V85c0-1.379-.459-2.729-1.367-3.635l-5-5C347.729 75.459 346.377 75 345 75h-5c-2.012-.005-3.516-1.025-5-2.275s-2.988-2.72-5-2.725h-5c-2.012-.005-3.516-1.025-5-2.275s-2.988-2.72-5-2.725-3.516-1.025-5-2.275-2.988-2.72-5-2.725h-.444l.185-.005zM55 115c-2.766 0-5-2.236-5-5V55c0-2.764 2.234-5 5-5h55c1.379 0 2.729.459 3.635 1.365l5 5c.906.906 1.365 2.256 1.365 3.635.005 2.01 1.475 3.516 2.725 5s4.48 4.375 5 5c1.25 1.484 2.271 2.99 2.275 5s1.475 3.516 2.725 5 3.75 3.516 5 5 2.271 2.988 2.275 5c0 1.377.459 2.729 1.365 3.633l5 5c.906.908 2.256 1.367 3.635 1.367h35c2.764 0 5 2.236 5 5v5c0 2.764-2.236 5-5 5H55zm135-55a1.494 1.494 0 00-.259-.005c-1.284-.056-2.534-.511-3.384-1.36-.898-.905-4.6-3.635-5.449-3.635h-.454c-1.38 0-2.725-1.121-2.725-2.5s1.345-2.5 2.725-2.5H225c1.377 0 2.729.459 3.633 1.365l5 5c.908.906 1.367 2.256 1.367 3.635.005 2.01 1.475 3.516 2.725 5s4.482 4.375 5 5c1.25 1.484 2.271 2.99 2.275 5s1.475 3.516 2.725 5 3.75 3.516 5 5 2.271 2.988 2.275 5c0 1.377.459 2.729 1.367 3.633l5 5c.904.908 2.256 1.367 3.633 1.367h35c2.764 0 5 2.236 5 5v5c0 2.764-2.236 5-5 5h-55c-2.764 0-5-2.236-5-5V85c0-1.379-.459-2.729-1.367-3.635l-5-5C232.729 75.459 231.377 75 230 75h-5c-2.012-.005-3.516-1.025-5-2.275s-2.988-2.72-5-2.725h-5c-2.012-.005-3.516-1.025-5-2.275s-2.988-2.72-5-2.725-3.516-1.025-5-2.275-2.988-2.72-5-2.725z"/>
  <g fill="#A9D9E5">
    <path d="M275 10v30h70v-5h-15v-5h-15v-5h-10v-5h-10v-5h-10v-5zM240 35v5h30V10h-5v5h-5v5h-5v5h-5v5h-5v5zM275 60v30h70v-5h-15v-5h-15v-5h-10v-5h-10v-5h-10v-5zM310 155v-30h-75v5h20v5h15v5h10v5h10v5h10v5zM345 105V95h-30v60h5v-10h5v-10h5v-10h5v-10h5v-10zM240 45v5h5v10h5v5h5v10h5v5h5v10h5V45z"/>
  </g>
  <g fill="#289EBF">
    <path d="M10 80h30V10h-5v15h-5v15h-5v10h-5v10h-5v10h-5zM45 10v30h70v-5h-15v-5H85v-5H75v-5H65v-5H55v-5zM10 85h30v70h-5v-15h-5v-15h-5v-10h-5v-10h-5V95h-5zM45 155v-30h70v5h-15v5H85v5H75v5H65v5H55v5z"/>
  </g>
  <g fill="#53B2CC">
    <path d="M160 10v30h70v-5h-15v-5h-15v-5h-10v-5h-10v-5h-10v-5zM125 35v5h30V10h-5v5h-5v5h-5v5h-5v5h-5v5zM160 60v30h70v-5h-15v-5h-15v-5h-10v-5h-10v-5h-10v-5zM195 155v-30h-70v5h15v5h15v5h10v5h10v5h10v5zM125 45v5h5v10h5v5h5v10h5v5h5v10h5V45zM230 105V95h-30v60h5v-10h5v-10h5v-10h5v-10h5v-10z"/>
  </g>
</svg>
