<svg xmlns="http://www.w3.org/2000/svg" viewBox="-12 -107 379 379">
  <path fill="#006A89" d="M-12-107h379v379H-12z"/>
  <path fill="#FFF" d="M305 60a1.5 1.5 0 00-.3 0h-.1.4zm-.3 0c-1.2 0-2.5-.5-3.3-1.4-1-.9-4.6-3.6-5.5-3.6h-.4c-1.4 0-2.8-.9-2.8-2.3s1.4-2.7 2.8-2.7H345c1.4 0 2.7-.5 3.6-1.4l5-5c1-.9 1.4-2.2 1.4-3.6v-5c0-1.4-.5-2.7-1.4-3.6l-5-5c-.9-1-2.2-1.4-3.6-1.4h-5c-2 0-3.5-1-5-2.3s-3-2.7-5-2.7h-5c-2 0-3.5-1-5-2.3s-3-2.7-5-2.7-3.5-1-5-2.3-3-2.7-5-2.7-3.5-1-5-2.3-3-2.7-5-2.7-3.5-1-5-2.3-3-2.7-5-2.7h-20c-1.4 0-2.7.5-3.6 1.4l-10 10L240 22.7a7.3 7.3 0 01-5 2.3h-10c-2 0-3.5-1-5-2.3s-3-2.7-5-2.7h-5c-2 0-3.5-1-5-2.3s-3-2.7-5-2.7-3.5-1-5-2.3-3-2.7-5-2.7-3.5-1-5-2.3-3-2.7-5-2.7-3.5-1-5-2.3-3-2.7-5-2.7h-20c-1.4 0-2.7.5-3.6 1.4l-10 10L125 22.7a7.3 7.3 0 01-5 2.3h-5v.8l-.2-.8H110c-2 0-3.5-1-5-2.3s-3-2.7-5-2.7h-5c-2 0-3.5-1-5-2.3S87 15 85 15s-3.5-1-5-2.3-3-2.7-5-2.7-3.5-1-5-2.3S67 5 65 5s-3.5-1-5-2.3S57 0 55 0H35c-1.4 0-2.7.5-3.6 1.4l-5 5c-1 .9-1.4 2.2-1.4 3.6v5c0 2-1 3.5-2.3 5S20 23 20 25v5c0 2-1 3.5-2.3 5S15 38 15 40s-1 3.5-2.3 5-2.7 3-2.7 5-1 3.5-2.3 5S5 58 5 60s-1 3.5-2.3 5S0 68 0 70v25c0 2 1.5 3.5 2.7 5s2.3 3 2.3 5 1.5 3.5 2.7 5 2.3 3 2.3 5 1.5 3.5 2.7 5 2.3 3 2.3 5 1.5 3.5 2.7 5 2.3 3 2.3 5v5c0 2 1.5 3.5 2.7 5s2.3 3 2.3 5v5c0 1.4.5 2.7 1.4 3.6l5 5c.9 1 2.2 1.4 3.6 1.4h20c2 0 3.5-1 5-2.3s3-2.7 5-2.7 3.5-1 5-2.3 3-2.7 5-2.7 3.5-1 5-2.3 3-2.7 5-2.7 3.5-1 5-2.3 3-2.7 5-2.7h5c2 0 3.5-1 5-2.3s3-2.7 5-2.7h20c1 0 2 .4 2.7 1 .8.4 1.6 1.1 2.3 1.7s1.5 1.4 2.3 1.8c.8.5 1.7.5 2.7.5h5c2 0 3.5 1.5 5 2.7s3 2.3 5 2.3 3.5 1.5 5 2.7 3 2.3 5 2.3 3.5 1.5 5 2.7 3 2.3 5 2.3 3.5 1.5 5 2.7 3 2.3 5 2.3h20c1.4 0 2.7-.5 3.6-1.4l5-5c1-.9 1.4-2.2 1.4-3.6 0-2 1.5-3.5 2.7-5s2.3-3 2.3-5a5 5 0 015-5h20c1 0 2 .4 2.7 1 .8.4 1.5 1.1 2.3 1.7s1.5 1.4 2.3 1.8c.8.5 1.7.5 2.7.5h5c2 0 3.5 1.5 5 2.7s3 2.3 5 2.3 3.5 1.5 5 2.7 3 2.3 5 2.3 3.5 1.5 5 2.7 3 2.3 5 2.3 3.5 1.5 5 2.7 3 2.3 5 2.3h20c1.4 0 2.7-.5 3.6-1.4l5-5c1-.9 1.4-2.2 1.4-3.6 0-2 1.5-3.5 2.7-5s2.3-3 2.3-5 1.5-3.5 2.7-5 2.3-3 2.3-5 1.5-3.5 2.7-5 2.3-3 2.3-5 1.5-3.5 2.7-5 2.3-3 2.3-5 1.5-3.5 2.7-5 2.3-3 2.3-5V85c0-1.4-.5-2.7-1.4-3.6l-5-5c-.9-1-2.2-1.4-3.6-1.4h-5c-2 0-3.5-1-5-2.3s-3-2.7-5-2.7h-5c-2 0-3.5-1-5-2.3s-3-2.7-5-2.7-3.5-1-5-2.3-3-2.7-5-2.7h-.4.1zM55 115a5 5 0 01-5-5V55a5 5 0 015-5h55c1.4 0 2.7.5 3.6 1.4l5 5c1 .9 1.4 2.2 1.4 3.6 0 2 1.5 3.5 2.7 5s4.5 4.4 5 5c1.3 1.5 2.3 3 2.3 5s1.5 3.5 2.7 5 3.8 3.5 5 5 2.3 3 2.3 5c0 1.4.5 2.7 1.4 3.6l5 5c.9 1 2.2 1.4 3.6 1.4h35a5 5 0 015 5v5a5 5 0 01-5 5H55zm135-55a1.5 1.5 0 00-.3 0c-1.2 0-2.5-.5-3.3-1.4-1-.9-4.6-3.6-5.5-3.6h-.4c-1.4 0-2.8-1.1-2.8-2.5s1.4-2.5 2.8-2.5H225c1.4 0 2.7.5 3.6 1.4l5 5c1 .9 1.4 2.2 1.4 3.6 0 2 1.5 3.5 2.7 5s4.5 4.4 5 5c1.3 1.5 2.3 3 2.3 5s1.5 3.5 2.7 5 3.8 3.5 5 5 2.3 3 2.3 5c0 1.4.5 2.7 1.4 3.6l5 5c.9 1 2.2 1.4 3.6 1.4h35a5 5 0 015 5v5a5 5 0 01-5 5h-55a5 5 0 01-5-5V85c0-1.4-.5-2.7-1.4-3.6l-5-5c-.9-1-2.2-1.4-3.6-1.4h-5c-2 0-3.5-1-5-2.3s-3-2.7-5-2.7h-5c-2 0-3.5-1-5-2.3s-3-2.7-5-2.7-3.5-1-5-2.3-3-2.7-5-2.7z"/>
  <path fill="#A9D9E5" d="M275 10v30h70v-5h-15v-5h-15v-5h-10v-5h-10v-5h-10v-5zm-35 25v5h30V10h-5v5h-5v5h-5v5h-5v5h-5v5zm35 25v30h70v-5h-15v-5h-15v-5h-10v-5h-10v-5h-10v-5zm35 95v-30h-75v5h20v5h15v5h10v5h10v5h10v5zm35-50V95h-30v60h5v-10h5v-10h5v-10h5v-10h5v-10zM240 45v5h5v10h5v5h5v10h5v5h5v10h5V45z"/>
  <path fill="#289EBF" d="M10 80h30V10h-5v15h-5v15h-5v10h-5v10h-5v10h-5zm35-70v30h70v-5h-15v-5H85v-5H75v-5H65v-5H55v-5zM10 85h30v70h-5v-15h-5v-15h-5v-10h-5v-10h-5V95h-5zm35 70v-30h70v5h-15v5H85v5H75v5H65v5H55v5z"/>
  <path fill="#53B2CC" d="M160 10v30h70v-5h-15v-5h-15v-5h-10v-5h-10v-5h-10v-5zm-35 25v5h30V10h-5v5h-5v5h-5v5h-5v5h-5v5zm35 25v30h70v-5h-15v-5h-15v-5h-10v-5h-10v-5h-10v-5zm35 95v-30h-70v5h15v5h15v5h10v5h10v5h10v5zM125 45v5h5v10h5v5h5v10h5v5h5v10h5V45zm105 60V95h-30v60h5v-10h5v-10h5v-10h5v-10h5v-10z"/>
</svg>
